<svg width="113" height="14" viewBox="0 0 113 14" fill="none" xmlns="http://www.w3.org/2000/svg">
<path d="M6.30176 0.203125H8.93848V9.0625C8.93848 9.87695 8.75684 10.5977 8.39355 11.2246C8.03613 11.8457 7.5293 12.3262 6.87305 12.666C6.2168 13.0059 5.47559 13.1758 4.64941 13.1758C3.2959 13.1758 2.24121 12.833 1.48535 12.1475C0.729492 11.4561 0.351562 10.4805 0.351562 9.2207H3.00586C3.00586 9.84766 3.1377 10.3105 3.40137 10.6094C3.66504 10.9082 4.08105 11.0576 4.64941 11.0576C5.15332 11.0576 5.55469 10.8848 5.85352 10.5391C6.15234 10.1934 6.30176 9.70117 6.30176 9.0625V0.203125ZM17.833 9.64258C17.833 9.14453 17.6572 8.76367 17.3057 8.5C16.9541 8.23047 16.3213 7.94922 15.4072 7.65625C14.4932 7.35742 13.7695 7.06445 13.2363 6.77734C11.7832 5.99219 11.0566 4.93457 11.0566 3.60449C11.0566 2.91309 11.25 2.29785 11.6367 1.75879C12.0293 1.21387 12.5889 0.789063 13.3154 0.484375C14.0479 0.179687 14.8682 0.0273438 15.7764 0.0273438C16.6904 0.0273438 17.5049 0.194336 18.2197 0.52832C18.9346 0.856445 19.4883 1.32227 19.8809 1.92578C20.2793 2.5293 20.4785 3.21484 20.4785 3.98242H17.8418C17.8418 3.39648 17.6572 2.94238 17.2881 2.62012C16.9189 2.29199 16.4004 2.12793 15.7324 2.12793C15.0879 2.12793 14.5869 2.26563 14.2295 2.54102C13.8721 2.81055 13.6934 3.16797 13.6934 3.61328C13.6934 4.0293 13.9014 4.37793 14.3174 4.65918C14.7393 4.94043 15.3574 5.2041 16.1719 5.4502C17.6719 5.90137 18.7646 6.46094 19.4502 7.12891C20.1357 7.79688 20.4785 8.62891 20.4785 9.625C20.4785 10.7324 20.0596 11.6025 19.2217 12.2354C18.3838 12.8623 17.2559 13.1758 15.8379 13.1758C14.8535 13.1758 13.957 12.9971 13.1484 12.6396C12.3398 12.2764 11.7217 11.7812 11.2939 11.1543C10.8721 10.5273 10.6611 9.80078 10.6611 8.97461H13.3066C13.3066 10.3867 14.1504 11.0928 15.8379 11.0928C16.4648 11.0928 16.9541 10.9668 17.3057 10.7148C17.6572 10.457 17.833 10.0996 17.833 9.64258Z" fill="black"/>
<path d="M34.6816 0.203125L37.9688 9.48438L41.2383 0.203125H44.7012V13H42.0557V9.50195L42.3193 3.46387L38.8652 13H37.0547L33.6094 3.47266L33.873 9.50195V13H31.2363V0.203125H34.6816ZM54.3867 10.3633H49.7637L48.8848 13H46.0811L50.8447 0.203125H53.2881L58.0781 13H55.2744L54.3867 10.3633ZM50.4756 8.22754H53.6748L52.0664 3.4375L50.4756 8.22754ZM65.9092 9.64258C65.9092 9.14453 65.7334 8.76367 65.3818 8.5C65.0303 8.23047 64.3975 7.94922 63.4834 7.65625C62.5693 7.35742 61.8457 7.06445 61.3125 6.77734C59.8594 5.99219 59.1328 4.93457 59.1328 3.60449C59.1328 2.91309 59.3262 2.29785 59.7129 1.75879C60.1055 1.21387 60.665 0.789063 61.3916 0.484375C62.124 0.179687 62.9443 0.0273438 63.8525 0.0273438C64.7666 0.0273438 65.5811 0.194336 66.2959 0.52832C67.0107 0.856445 67.5645 1.32227 67.957 1.92578C68.3555 2.5293 68.5547 3.21484 68.5547 3.98242H65.918C65.918 3.39648 65.7334 2.94238 65.3643 2.62012C64.9951 2.29199 64.4766 2.12793 63.8086 2.12793C63.1641 2.12793 62.6631 2.26563 62.3057 2.54102C61.9482 2.81055 61.7695 3.16797 61.7695 3.61328C61.7695 4.0293 61.9775 4.37793 62.3936 4.65918C62.8154 4.94043 63.4336 5.2041 64.248 5.4502C65.748 5.90137 66.8408 6.46094 67.5264 7.12891C68.2119 7.79688 68.5547 8.62891 68.5547 9.625C68.5547 10.7324 68.1357 11.6025 67.2979 12.2354C66.46 12.8623 65.332 13.1758 63.9141 13.1758C62.9297 13.1758 62.0332 12.9971 61.2246 12.6396C60.416 12.2764 59.7979 11.7812 59.3701 11.1543C58.9482 10.5273 58.7373 9.80078 58.7373 8.97461H61.3828C61.3828 10.3867 62.2266 11.0928 63.9141 11.0928C64.541 11.0928 65.0303 10.9668 65.3818 10.7148C65.7334 10.457 65.9092 10.0996 65.9092 9.64258ZM79.9805 2.33887H76.0605V13H73.4238V2.33887H69.5566V0.203125H79.9805V2.33887ZM89.1914 7.4541H84.1289V10.8818H90.0703V13H81.4922V0.203125H90.0527V2.33887H84.1289V5.38867H89.1914V7.4541ZM96.3545 8.31543H94.2539V13H91.6172V0.203125H96.3721C97.8838 0.203125 99.0498 0.540039 99.8701 1.21387C100.69 1.8877 101.101 2.83984 101.101 4.07031C101.101 4.94336 100.91 5.67285 100.529 6.25879C100.154 6.83887 99.583 7.30176 98.8154 7.64746L101.584 12.877V13H98.7539L96.3545 8.31543ZM94.2539 6.17969H96.3809C97.043 6.17969 97.5557 6.0127 97.9189 5.67871C98.2822 5.33887 98.4639 4.87305 98.4639 4.28125C98.4639 3.67773 98.291 3.20312 97.9453 2.85742C97.6055 2.51172 97.0811 2.33887 96.3721 2.33887H94.2539V6.17969ZM107.104 5.96875L109.767 0.203125H112.649L108.448 8.35938V13H105.768V8.35938L101.566 0.203125H104.458L107.104 5.96875Z" fill="#05FF00"/>
</svg>
